# xmcd
#
# Track frame offsets:
#	150
#	13954
#	26980
#	37957
#	57950
#	70868
#	82194
#	96492
#	108100
#	119829
#	135604
#	150029
#
# Disc length: 2235 seconds
#
# Revision: 1
# Processed by: cddbd v1.5.2PL0 Copyright (c) Steve Scherf et al.
# Submitted via: audiograbber 1.83.01
#
DISCID=a108b90c
DTITLE=Johnny Cash - Hello I'm Johnny Cash
DYEAR=1970
DGENRE=Country
TTITLE0=If I Were A Carpenter
TTITLE1=See Ruby Fall
TTITLE2=Blistered
TTITLE3=To Beat The devil
TTITLE4=I've Got A Thing About Trains
TTITLE5=Route 1 Box 144
TTITLE6=Sing A Travelin Song
TTITLE7=Wrinkled Crinkled Wadded Dollar Bill
TTITLE8=Cause I Love You
TTITLE9=The Devil To pay
TTITLE10=Southwind
TTITLE11=Jesus was A Carpenter
EXTD=
EXTT0=
EXTT1=
EXTT2=
EXTT3=
EXTT4=
EXTT5=
EXTT6=
EXTT7=
EXTT8=
EXTT9=
EXTT10=
EXTT11=
PLAYORDER=
